<svg xmlns="http://www.w3.org/2000/svg" xmlns:xlink="http://www.w3.org/1999/xlink" viewBox="0,0,256,256" width="120px" height="120px" fill-rule="nonzero"><g fill="#897c6d" fill-rule="nonzero" stroke="none" stroke-width="1" stroke-linecap="butt" stroke-linejoin="miter" stroke-miterlimit="10" stroke-dasharray="" stroke-dashoffset="0" font-family="none" font-weight="none" font-size="none" text-anchor="none" style="mix-blend-mode: normal"><g transform="scale(8.53333,8.53333)"><path d="M15.5,2c-1.33831,0.00085 -2.43859,1.0555 -2.49609,2.39258l-4.9668,3.13867c-0.43884,-0.34345 -0.97985,-0.53043 -1.53711,-0.53125c-1.075,0.00112 -2.02893,0.68933 -2.36901,1.70912c-0.34008,1.01979 0.00985,2.14281 0.86901,2.78893v7.00586c-0.85747,0.64658 -1.20619,1.76856 -0.86632,2.78729c0.33987,1.01873 1.29239,1.70658 2.36632,1.70881c0.55726,-0.00082 1.09827,-0.1878 1.53711,-0.53125l4.9668,3.13672c0.05649,1.33785 1.15706,2.39363 2.49609,2.39453c1.33831,-0.00085 2.43859,-1.0555 2.49609,-2.39258l4.9668,-3.13867c0.43884,0.34345 0.97985,0.53043 1.53711,0.53125c1.075,-0.00112 2.02893,-0.68933 2.36901,-1.70912c0.34008,-1.01979 -0.00985,-2.14281 -0.86901,-2.78893v-7.00586c0.85747,-0.64658 1.20619,-1.76856 0.86632,-2.78729c-0.33987,-1.01873 -1.29239,-1.70658 -2.36632,-1.70881c-0.55726,0.00082 -1.09827,0.1878 -1.53711,0.53125l-4.9668,-3.13672c-0.05649,-1.33785 -1.15706,-2.39363 -2.49609,-2.39453zM12.70898,6.94727l-5.70898,10.21094v-5.20898c1.23868,-0.25456 2.09222,-1.394 1.98828,-2.6543zM15,6.94727c0.16447,0.03434 0.33198,0.052 0.5,0.05273c0.16867,-0.0006 0.33684,-0.01827 0.50195,-0.05273l6.64063,11.88281c-0.29642,0.33082 -0.49934,0.73465 -0.58789,1.16992h-13.10742c-0.08822,-0.43597 -0.29117,-0.84051 -0.58789,-1.17187zM18.29297,6.94727l3.7168,2.34766c-0.10275,1.26019 0.75156,2.39871 1.99023,2.65234v5.21289zM11.03906,22h8.92188l-2.71289,1.71484c-0.46681,-0.45767 -1.09431,-0.71428 -1.74805,-0.71484c-0.65306,0.00107 -1.27977,0.25765 -1.74609,0.71484z"></path></g></g></svg>